#!OML:ASF H:\ManfredObstacles\Project 1\Capture day 2\Session 1\male.ASF
:FULLY-SPECIFIED
:DEGREES
321
root 2.7225 15.6544 -27.3457 -167.658 6.20341 182.105
lowerback 0.930326 4.17192 -0.057733
upperback 0.865356 5.59906 -1.6727
thorax 0.529062 2.8186 -1.69771
lowerneck -36.7762 -1.30824 -0.45984
upperneck 35.9451 -3.38421 1.16141
head 20.4045 -1.46633 -0.378867
rclavicle 2.03754e-014 -2.26615e-014
rhumerus -35.096 16.0301 -101.918
rradius 86.6567
rwrist 13.6988
rhand -11.9572 -4.91487
rfingers 7.12502
rthumb 14.0982 -34.4166
lclavicle 2.03754e-014 -2.26615e-014
lhumerus -64.9143 -15.2952 88.0322
lradius 92.6268
lwrist -18.1035
lhand -15.1034 14.3072
lfingers 7.12502
lthumb 11.0651 43.9955
rfemur -0.160881 6.24651 27.6328
rtibia 26.3892
rfoot -3.33922 -14.2907
rtoes -31.3176
lfemur -41.1281 0.188597 -16.5692
ltibia 73.9801
lfoot 6.35006 24.4887
ltoes -5.59937
322
root 2.71982 15.741 -27.6335 -167.289 6.16986 182.105
lowerback 0.685879 4.5013 -0.0286462
upperback 0.711967 6.03974 -1.86471
thorax 0.545258 3.03946 -1.89512
lowerneck -37.1209 -1.72107 -0.739151
upperneck 35.9633 -3.99858 1.54263
head 20.5323 -1.65934 -0.30732
rclavicle 5.45664e-014 -1.27222e-014
rhumerus -34.4132 17.0608 -102.568
rradius 87.5745
rwrist 13.2928
rhand -12.0051 -4.79844
rfingers 7.12502
rthumb 14.0521 -34.3034
lclavicle 5.45664e-014 -1.27222e-014
lhumerus -65.5515 -15.8924 88.0405
lradius 93.6587
lwrist -17.9814
lhand -15.1248 13.92
lfingers 7.12502
lthumb 11.0444 43.6094
rfemur 1.0763 6.11519 27.4793
rtibia 24.6049
rfoot -0.893021 -12.9888
rtoes -31.4526
lfemur -41.7646 -0.0250725 -16.5749
ltibia 71.3722
lfoot 6.27468 25.0169
ltoes -5.62131
323
root 2.71776 15.8274 -27.9265 -166.912 6.08313 182.083
lowerback 0.401307 4.79107 -0.0366601
upperback 0.568095 6.4297 -2.06236
thorax 0.591569 3.23548 -2.07129
lowerneck -37.473 -2.10927 -0.970852
upperneck 35.9494 -4.58616 1.89641
head 20.6455 -1.83781 -0.250812
rclavicle 5.33737e-014 1.15295e-014
rhumerus -33.8577 18.1817 -103.128
rradius 88.5134
rwrist 12.8956
rhand -12.0709 -4.6943
rfingers 7.12502
rthumb 13.9887 -34.2036
lclavicle 5.33737e-014 1.15295e-014
lhumerus -66.1189 -16.4742 88.0274
lradius 94.6252
lwrist -17.9093
lhand -15.1219 13.5464
lfingers 7.12502
lthumb 11.0472 43.2357
rfemur 2.34118 5.9729 27.3197
rtibia 22.7032
rfoot 1.74723 -11.7732
rtoes -31.4608
lfemur -42.2773 -0.272707 -16.5943
ltibia 68.5516
lfoot 6.17231 25.4405
ltoes -5.6301
324
root 2.7172 15.9129 -28.2237 -166.538 5.9588 181.999
lowerback 0.0942845 5.05253 -0.136044
upperback 0.443565 6.78518 -2.267
thorax 0.661614 3.41483 -2.19905
lowerneck -37.93 -2.49988 -1.20046
upperneck 35.932 -5.1593 2.22923
head 20.7868 -2.00907 -0.202893
rclavicle -4.86029e-014 1.07344e-014
rhumerus -33.4155 19.3472 -103.559
rradius 89.4977
rwrist 12.5108
rhand -12.1152 -4.58388
rfingers 7.12502
rthumb 13.946 -34.0962
lclavicle -4.86029e-014 1.07344e-014
lhumerus -66.59 -17.0581 88.0212
lradius 95.5081
lwrist -17.9058
lhand -15.1308 13.1668
lfingers 7.12502
lthumb 11.0386 42.8565
rfemur 3.62967 5.85031 27.1188
rtibia 20.7069
rfoot 4.55792 -10.7083
rtoes -31.365
lfemur -42.6536 -0.559815 -16.6673
ltibia 65.527
lfoot 6.04914 25.7053
ltoes -5.57419
325
root 2.71809 15.9947 -28.5245 -166.168 5.80426 181.835
lowerback -0.237347 5.28323 -0.345867
upperback 0.326785 7.10407 -2.48231
thorax 0.741094 3.57635 -2.27267
lowerneck -38.3795 -2.88648 -1.42089
upperneck 35.8807 -5.71797 2.54737
head 20.9082 -2.17449 -0.160644
rclavicle -3.95581e-014 2.10712e-014
rhumerus -33.1047 20.5109 -103.878
rradius 90.5166
rwrist 12.2578
rhand -12.0866 -4.4406
rfingers 7.12502
rthumb 13.9735 -33.951
lclavicle -3.95581e-014 2.10712e-014
lhumerus -66.9922 -17.6369 88.0263
lradius 96.3321
lwrist -17.924
lhand -15.1529 12.7862
lfingers 7.12502
lthumb 11.0173 42.4771
rfemur 4.93621 5.7503 26.861
rtibia 18.6515
rfoot 7.52374 -9.82039
rtoes -31.0828
lfemur -42.9011 -0.895055 -16.8088
ltibia 62.3314
lfoot 5.94319 25.759
ltoes -5.59058
326
root 2.71974 16.071 -28.8288 -165.809 5.62112 181.587
lowerback -0.608779 5.47997 -0.662666
upperback 0.236003 7.38489 -2.70681
thorax 0.855828 3.71955 -2.29036
lowerneck -38.8811 -3.2595 -1.61443
upperneck 35.8135 -6.245 2.82522
head 21.0319 -2.32751 -0.135993
rclavicle -2.3556e-014 4.37326e-015
rhumerus -32.8975 21.6639 -104.082
rradius 91.5763
rwrist 12.0627
rhand -11.9899 -4.2543
rfingers 7.12502
rthumb 14.0667 -33.7582
lclavicle -2.3556e-014 4.37326e-015
lhumerus -67.2973 -18.2114 88.0486
lradius 97.0983
lwrist -17.9238
lhand -15.1869 12.418
lfingers 7.12502
lthumb 10.9845 42.1106
rfemur 6.24766 5.6464 26.5333
rtibia 16.6021
rfoot 10.5735 -9.11524
rtoes -30.6458
lfemur -43.0148 -1.29299 -17.026
ltibia 59.0015
lfoot 5.87984 25.5807
ltoes -5.72451
327
root 2.72202 16.1398 -29.135 -165.457 5.4159 181.284
lowerback -0.995274 5.64523 -1.05819
upperback 0.152213 7.6307 -2.93128
thorax 0.97387 3.84554 -2.2623
lowerneck -39.4033 -3.62284 -1.79742
upperneck 35.7333 -6.74612 3.07791
head 21.1524 -2.47172 -0.120042
rclavicle -7.77248e-014 1.98785e-014
rhumerus -32.8026 22.7715 -104.192
rradius 92.6602
rwrist 11.9535
rhand -11.8073 -4.0131
rfingers 7.12502
rthumb 14.2427 -33.5047
lclavicle -7.77248e-014 1.98785e-014
lhumerus -67.5436 -18.7799 88.1102
lradius 97.8271
lwrist -17.8448
lhand -15.2644 12.0624
lfingers 7.12502
lthumb 10.9098 41.759
rfemur 7.53907 5.5598 26.1739
rtibia 14.6284
rfoot 13.6129 -8.63305
rtoes -30.0762
lfemur -43.0239 -1.728 -17.2851
ltibia 55.5965
lfoot 5.83258 25.1578
ltoes -5.99065
328
root 2.72411 16.1997 -29.4434 -165.103 5.19125 180.952
lowerback -1.43946 5.80335 -1.47692
upperback 0.136507 7.87764 -3.14914
thorax 1.18872 3.97222 -2.20233
lowerneck -40.0621 -4.02844 -2.04244
upperneck 35.6571 -7.26443 3.34475
head 21.3168 -2.62215 -0.0939465
rclavicle -9.93923e-015 1.19271e-014
rhumerus -32.6588 23.7943 -104.111
rradius 93.7428
rwrist 11.9043
rhand -11.5711 -3.71251
rfingers 7.12502
rthumb 14.4703 -33.188
lclavicle -9.93923e-015 1.19271e-014
lhumerus -67.5843 -19.4051 88.2247
lradius 98.4885
lwrist -17.6645
lhand -15.3872 11.7326
lfingers 7.12502
lthumb 10.7913 41.4354
rfemur 8.7752 5.45902 25.8029
rtibia 12.818
rfoot 16.5405 -8.32112
rtoes -29.388
lfemur -42.9466 -2.19546 -17.5621
ltibia 52.1755
lfoot 5.75664 24.5386
ltoes -6.30238
329
root 2.72503 16.2503 -29.7534 -164.745 4.95046 180.617
lowerback -1.88638 6.01758 -1.83307
upperback 0.106624 8.20376 -3.37158
thorax 1.40047 4.13848 -2.17656
lowerneck -40.6143 -4.5772 -2.52042
upperneck 35.5686 -7.89802 3.72111
head 21.4794 -2.833 -0.0072844
rclavicle 1.01082e-013 -3.18055e-014
rhumerus -32.6144 24.5203 -103.85
rradius 94.8405
rwrist 11.8755
rhand -11.3141 -3.35816
rfingers 7.12502
rthumb 14.7179 -32.8157
lclavicle 1.01082e-013 -3.18055e-014
lhumerus -67.5817 -20.2499 88.5032
lradius 99.1059
lwrist -17.4318
lhand -15.5209 11.4445
lfingers 7.12502
lthumb 10.6623 41.154
rfemur 9.91362 5.33757 25.4386
rtibia 11.2623
rfoot 19.2766 -8.16045
rtoes -28.4971
lfemur -42.8022 -2.68474 -17.8342
ltibia 48.8092
lfoot 5.64881 23.7517
ltoes -6.7054
330
root 2.72449 16.2911 -30.0643 -164.405 4.71095 180.289
lowerback -2.33769 6.20066 -2.18332
upperback 0.0756147 8.49374 -3.58498
thorax 1.6107 4.28636 -2.14281
lowerneck -41.1205 -5.10305 -2.98366
upperneck 35.4785 -8.50391 4.09222
head 21.6357 -3.03338 0.0803532
rclavicle -4.76089e-014 4.01545e-014
rhumerus -32.6675 25.1815 -103.581
rradius 95.9116
rwrist 11.779
rhand -11.0662 -2.97656
rfingers 7.12502
rthumb 14.9567 -32.4165
lclavicle -4.76089e-014 4.01545e-014
lhumerus -67.5361 -21.0684 88.7894
lradius 99.6853
lwrist -17.2313
lhand -15.6404 11.2069
lfingers 7.12502
lthumb 10.5471 40.9223
rfemur 10.9149 5.19023 25.0854
rtibia 10.0703
rfoot 21.7726 -8.14852
rtoes -27.2691
lfemur -42.5825 -3.17413 -18.0991
ltibia 45.5644
lfoot 5.51806 22.8594
ltoes -7.12242
331
root 2.72134 16.3215 -30.3759 -164.079 4.46269 180
lowerback -2.81711 6.34858 -2.47944
upperback 0.0489545 8.74041 -3.77794
thorax 1.8436 4.4119 -2.11277
lowerneck -41.5405 -5.58198 -3.41267
upperneck 35.391 -9.05828 4.44539
head 21.774 -3.21612 0.166936
rclavicle -3.56818e-014 1.70955e-014
rhumerus -32.7923 25.7898 -103.316
rradius 96.898
rwrist 11.6208
rhand -10.8752 -2.58326
rfingers 7.12502
rthumb 15.1408 -32.0094
lclavicle -3.56818e-014 1.70955e-014
lhumerus -67.4497 -21.8489 89.0832
lradius 100.242
lwrist -17.0766
lhand -15.7336 11.0469
lfingers 7.12502
lthumb 10.4572 40.7668
rfemur 11.7086 4.8807 24.7421
rtibia 9.36356
rfoot 23.9802 -8.12516
rtoes -25.7858
lfemur -42.3072 -3.66044 -18.3303
ltibia 42.5154
lfoot 5.41874 21.9068
ltoes -7.59155
332
root 2.71537 16.3417 -30.6876 -163.806 4.23207 179.75
lowerback -3.27174 6.43137 -2.75538
upperback 0.00279843 8.89942 -3.93767
thorax 2.03758 4.49298 -2.06651
lowerneck -41.8335 -5.94312 -3.72167
upperneck 35.3014 -9.49428 4.73442
head 21.8642 -3.35521 0.235478
rclavicle 4.83047e-014 3.97569e-015
rhumerus -33.0772 26.4105 -103.165
rradius 97.7854
rwrist 11.3958
rhand -10.7432 -2.22117
rfingers 7.12502
rthumb 15.2679 -31.6377
lclavicle 4.83047e-014 3.97569e-015
lhumerus -67.4008 -22.4697 89.3488
lradius 100.791
lwrist -17.0513
lhand -15.7824 10.9536
lfingers 7.12502
lthumb 10.4101 40.6759
rfemur 12.2614 4.59528 24.4331
rtibia 9.24685
rfoot 25.9772 -8.23728
rtoes -24.0381
lfemur -41.9479 -4.12843 -18.539
ltibia 39.7295
lfoot 5.43701 20.9526
ltoes -8.05956
333
root 2.70674 16.3512 -30.9982 -163.601 4.02322 179.546
lowerback -3.69218 6.44469 -3.0131
upperback -0.0231286 8.96404 -4.05003
thorax 2.22609 4.52536 -1.98881
lowerneck -42.1033 -6.17362 -3.88425
upperneck 35.2268 -9.78971 4.92737
head 21.9318 -3.43997 0.271572
rclavicle 6.67916e-014 3.69739e-014
rhumerus -33.4196 27.0713 -103.09
rradius 98.5155
rwrist 11.1347
rhand -10.6769 -1.92468
rfingers 7.12502
rthumb 15.3317 -31.3363
lclavicle 6.67916e-014 3.69739e-014
lhumerus -67.3057 -22.8982 89.5718
lradius 101.326
lwrist -17.1273
lhand -15.7877 10.9226
lfingers 7.12502
lthumb 10.4049 40.6451
rfemur 12.5687 4.33644 24.1651
rtibia 9.73769
rfoot 27.7925 -8.47868
rtoes -22.0193
lfemur -41.5093 -4.57255 -18.722
ltibia 37.2821
lfoot 5.62072 20.0299
ltoes -8.46693
334
root 2.69543 16.3494 -31.3079 -163.509 3.8503 179.404
lowerback -4.08911 6.4165 -3.21741
upperback 0.0402581 8.97142 -4.10447
thorax 2.49136 4.5258 -1.88036
lowerneck -42.4263 -6.30758 -3.93893
upperneck 35.1611 -9.96332 5.03089
head 21.9922 -3.47793 0.279462
rclavicle -4.25399e-014 2.26615e-014
rhumerus -33.6996 27.7363 -103.002
rradius 99.048
rwrist 10.811
rhand -10.6876 -1.71736
rfingers 7.12502
rthumb 15.3214 -31.1298
lclavicle -4.25399e-014 2.26615e-014
lhumerus -67.0481 -23.1878 89.7637
lradius 101.833
lwrist -17.2452
lhand -15.7666 10.9438
lfingers 7.12502
lthumb 10.4254 40.6653
rfemur 12.6882 4.12055 23.9487
rtibia 10.7992
rfoot 29.4465 -8.84538
rtoes -20.2537
lfemur -40.9603 -4.98826 -18.8714
ltibia 35.2401
lfoot 5.96421 19.1974
ltoes -8.77965
335
root 2.68176 16.3351 -31.6156 -163.516 3.69651 179.358
lowerback -4.33131 6.41252 -3.30049
upperback 0.0483953 8.98725 -4.10743
thorax 2.6231 4.53111 -1.80735
lowerneck -42.5547 -6.40994 -3.99414
upperneck 35.0972 -10.0672 5.06226
head 21.9939 -3.51121 0.272491
rclavicle 6.69904e-014 -6.04305e-014
rhumerus -34.1995 28.1364 -102.973
rradius 99.411
rwrist 10.5211
rhand -10.747 -1.59658
rfingers 7.12502
rthumb 15.2642 -31.0134
lclavicle 6.69904e-014 -6.04305e-014
lhumerus -66.8999 -23.4998 90.0948
lradius 102.328
lwrist -17.376
lhand -15.7428 10.9752
lfingers 7.12502
lthumb 10.4483 40.6956
rfemur 12.6464 3.80965 23.7937
rtibia 12.3478
rfoot 30.9561 -9.26598
rtoes -18.5714
lfemur -40.3443 -5.35762 -18.9582
ltibia 33.6697
lfoot 6.47255 18.4246
ltoes -8.93533
